<svg width="43" height="43" viewBox="0 0 43 43" fill="none" xmlns="http://www.w3.org/2000/svg">
<path d="M21.2827 42.5655C33.0369 42.5655 42.5655 33.0369 42.5655 21.2827C42.5655 9.52861 33.0369 0 21.2827 0C9.52861 0 0 9.52861 0 21.2827C0 33.0369 9.52861 42.5655 21.2827 42.5655Z" fill="#3E4357"/>
<path d="M21.2826 27.675C24.8432 27.675 27.6755 24.7618 27.6755 21.2821C27.6755 17.7215 24.7622 14.8892 21.2826 14.8892C17.7219 14.8892 14.8896 17.8024 14.8896 21.2821C14.8896 24.8427 17.7219 27.675 21.2826 27.675ZM16.4272 21.2821C16.4272 18.6116 18.6121 16.4267 21.2826 16.4267C23.953 16.4267 26.1379 18.6116 26.1379 21.2821C26.1379 23.9525 23.953 26.1375 21.2826 26.1375C18.6121 26.1375 16.4272 23.9525 16.4272 21.2821Z" fill="white"/>
<path d="M27.6756 31.9643H14.8898C12.4621 31.9643 10.52 30.0221 10.52 27.5944V14.9704C10.52 12.5427 12.4621 10.6006 14.8898 10.6006H27.6756C30.1033 10.6006 32.0455 12.5427 32.0455 14.9704V27.5944C32.0455 30.0221 30.1033 31.9643 27.6756 31.9643ZM14.8898 12.219C13.3523 12.219 12.1384 13.4329 12.1384 14.9704V27.5944C12.1384 29.132 13.3523 30.3458 14.8898 30.3458H27.6756C29.2132 30.3458 30.427 29.132 30.427 27.5944V14.9704C30.427 13.4329 29.2132 12.219 27.6756 12.219H14.8898Z" fill="white"/>
</svg>
