<svg width="43" height="43" viewBox="0 0 43 43" fill="none" xmlns="http://www.w3.org/2000/svg">
<path d="M21.2827 42.5655C33.0369 42.5655 42.5655 33.0369 42.5655 21.2827C42.5655 9.52861 33.0369 0 21.2827 0C9.52861 0 0 9.52861 0 21.2827C0 33.0369 9.52861 42.5655 21.2827 42.5655Z" fill="#3E4357"/>
<path d="M32.4501 14.4852C31.7218 14.8089 30.8316 14.9708 30.0224 15.1326C30.9126 14.5661 31.6409 13.7569 31.9646 12.7858C31.9646 12.7049 31.8836 12.7049 31.8836 12.7049C30.9935 13.1904 30.1033 13.5141 29.1323 13.7569C28.323 12.8668 27.1092 12.3003 25.7335 12.3003C23.144 12.3003 21.1209 14.3234 21.1209 16.9129C21.1209 17.2366 21.2018 17.6412 21.2018 17.9649C17.3175 17.8031 13.9187 15.9418 11.6529 13.1904C11.6529 13.1904 11.6529 13.1904 11.572 13.1904C11.1674 13.8378 10.9246 14.6471 10.9246 15.4563C10.9246 16.9938 11.7338 18.3695 12.9477 19.1787V19.2597C12.2194 19.2597 11.572 19.0169 11.0055 18.6932C11.0055 18.8551 11.0864 19.8261 11.3292 20.3926C11.8957 21.8492 13.1904 22.9012 14.728 23.2249C14.3233 23.3058 13.9187 23.3867 13.5141 23.3867C13.2714 23.3867 12.9477 23.3867 12.7049 23.3058C13.2714 25.0861 14.9707 26.3809 16.9938 26.4618C16.9938 26.4618 16.9938 26.4618 16.9938 26.5427C15.3754 27.7566 13.4332 28.4849 11.2483 28.4849C10.8437 28.4849 10.52 28.4849 10.1154 28.404C12.1384 29.6987 14.647 30.427 17.2366 30.427C20.8781 30.427 23.7913 29.2132 25.9763 27.271C28.1612 25.3289 29.6178 22.8203 30.1843 20.1498C30.427 19.2597 30.5079 18.2886 30.5079 17.3984C30.5079 17.2366 30.5079 16.9938 30.5079 16.832C31.3172 16.2655 32.1264 15.5372 32.6929 14.6471C32.612 14.4852 32.531 14.4043 32.4501 14.4852Z" fill="white"/>
</svg>
