<svg width="43" height="43" viewBox="0 0 43 43" fill="none" xmlns="http://www.w3.org/2000/svg">
<path d="M21.2827 42.5655C33.0369 42.5655 42.5655 33.0369 42.5655 21.2827C42.5655 9.52861 33.0369 0 21.2827 0C9.52861 0 0 9.52861 0 21.2827C0 33.0369 9.52861 42.5655 21.2827 42.5655Z" fill="#3E4357"/>
<path d="M23.0631 16.5081V14.6468C23.0631 13.7567 23.7105 13.5139 24.1151 13.5139C24.5197 13.5139 26.7855 13.5139 26.7855 13.5139V9.46777H23.144C19.0978 9.46777 18.1268 12.4619 18.1268 14.4041V16.5081H15.78V21.2825H18.1268C18.1268 26.6234 18.1268 33.0973 18.1268 33.0973H22.9012C22.9012 33.0973 22.9012 26.5425 22.9012 21.2825H26.3809L26.7855 16.5081H23.0631Z" fill="white"/>
</svg>
