<svg width="30" height="30" viewBox="0 0 30 30" fill="none" xmlns="http://www.w3.org/2000/svg">
<path opacity="0.54" fill-rule="evenodd" clip-rule="evenodd" d="M20.8367 18.3333H19.5133L19.0533 17.8766C20.6783 15.9816 21.6667 13.5249 21.6667 10.8333C21.6667 4.84995 16.8167 -5.34058e-05 10.8333 -5.34058e-05C4.85 -5.34058e-05 0 4.84995 0 10.8333C0 16.8166 4.85 21.6666 10.8333 21.6666C13.525 21.6666 15.98 20.6799 17.875 19.0566L18.335 19.5133V20.8333L26.665 29.1516L29.15 26.6666L20.8367 18.3333ZM10.8333 18.3333C6.68998 18.3333 3.33332 14.9766 3.33332 10.8333C3.33332 6.69162 6.68998 3.33329 10.8333 3.33329C14.975 3.33329 18.3333 6.69162 18.3333 10.8333C18.3333 14.9766 14.975 18.3333 10.8333 18.3333Z" fill="#E5E5E5"/>
</svg>
