<svg width="112" height="41" viewBox="0 0 112 41" fill="none" xmlns="http://www.w3.org/2000/svg">
<path fill-rule="evenodd" clip-rule="evenodd" d="M14.3741 1.78487C7.07646 10.4827 0.0737132 21.28 0 29.3779C0 32.3772 0.958271 35.0765 3.24338 37.101C6.56047 40.0252 10.1724 41 13.7844 41C19.018 41 24.2516 38.8255 28.3796 37.176C35.3086 34.4017 111.528 0.660153 111.528 0.660153C112.265 0.285247 112.118 -0.164639 111.233 0.0603041C110.791 0.135285 28.1584 22.9295 28.1584 22.9295C26.5367 23.3794 24.9151 23.6044 23.3671 23.6044C17.0277 23.6794 11.3518 20.0803 11.4255 12.5072C11.3518 9.58291 12.3101 5.98381 14.3741 1.78487Z" fill="#989A9F"/>
</svg>
